<svg width="54" height="12" viewBox="0 0 54 12" fill="none" xmlns="http://www.w3.org/2000/svg">
<path d="M1.344 11V4.798H0.392V3.44L1.358 3.244C1.42333 2.44133 1.58667 1.816 1.848 1.368C2.11867 0.919999 2.46867 0.607333 2.898 0.429999C3.33667 0.252666 3.83133 0.163999 4.382 0.163999C4.54067 0.163999 4.718 0.168666 4.914 0.177999C5.11933 0.187333 5.292 0.196666 5.432 0.206C5.58133 0.215333 5.656 0.219999 5.656 0.219999L5.502 1.942C5.502 1.942 5.44133 1.93733 5.32 1.928C5.19867 1.91867 5.04467 1.90933 4.858 1.9C4.68067 1.89067 4.508 1.886 4.34 1.886C4.144 1.886 3.98533 1.914 3.864 1.97C3.752 2.01667 3.668 2.13333 3.612 2.32C3.556 2.49733 3.52333 2.782 3.514 3.174H5.362V4.84H3.514V11H1.344ZM8.0097 11.156C7.6257 11.156 7.2777 11.068 6.9657 10.892C6.6617 10.708 6.4177 10.444 6.2337 10.1C6.0497 9.756 5.9577 9.34 5.9577 8.852C5.9577 8.268 6.0897 7.812 6.3537 7.484C6.6177 7.148 6.9897 6.908 7.4697 6.764C7.9497 6.62 8.5177 6.548 9.1737 6.548H10.0737C10.0737 6.204 10.0577 5.96 10.0257 5.816C9.9937 5.672 9.9577 5.568 9.9177 5.504C9.8857 5.448 9.8217 5.396 9.7257 5.348C9.6377 5.3 9.4537 5.276 9.1737 5.276C8.8857 5.276 8.5857 5.3 8.2737 5.348C7.9697 5.396 7.6857 5.452 7.4217 5.516C7.1577 5.58 6.9417 5.636 6.7737 5.684C6.6057 5.732 6.5217 5.756 6.5217 5.756L6.1377 4.412C6.1377 4.412 6.2177 4.38 6.3777 4.316C6.5457 4.252 6.7697 4.18 7.0497 4.1C7.3377 4.02 7.6617 3.948 8.0217 3.884C8.3897 3.82 8.7777 3.788 9.1857 3.788C9.8737 3.788 10.4177 3.896 10.8177 4.112C11.2177 4.32 11.5017 4.624 11.6697 5.024C11.8457 5.416 11.9337 5.888 11.9337 6.44V11H10.7577L10.5177 10.22H10.4457C10.4457 10.22 10.3737 10.268 10.2297 10.364C10.0937 10.46 9.9097 10.568 9.6777 10.688C9.4457 10.808 9.1857 10.916 8.8977 11.012C8.6097 11.108 8.3137 11.156 8.0097 11.156ZM8.5497 9.632C8.7737 9.632 9.0017 9.596 9.2337 9.524C9.4737 9.444 9.6737 9.368 9.8337 9.296C9.9937 9.216 10.0737 9.176 10.0737 9.176V7.928C10.0737 7.928 9.9777 7.92 9.7857 7.904C9.5937 7.88 9.3457 7.868 9.0417 7.868C8.5137 7.868 8.1857 7.928 8.0577 8.048C8.0017 8.096 7.9537 8.18 7.9137 8.3C7.8737 8.412 7.8537 8.572 7.8537 8.78C7.8537 9.076 7.9057 9.292 8.0097 9.428C8.1217 9.564 8.3017 9.632 8.5497 9.632ZM18.1025 11L15.5105 7.244L17.8385 3.944H20.0945L17.4305 7.172V7.232L20.3825 11H18.1025ZM13.6985 11L13.7465 7.148L13.6985 1.868H15.5585V11H13.6985ZM23.8699 11.168C23.2219 11.168 22.6499 11.048 22.1539 10.808C21.6659 10.568 21.2859 10.176 21.0139 9.632C20.7419 9.088 20.6059 8.364 20.6059 7.46C20.6059 6.516 20.7499 5.78 21.0379 5.252C21.3259 4.716 21.7139 4.336 22.2019 4.112C22.6899 3.888 23.2379 3.776 23.8459 3.776C24.4699 3.776 24.9979 3.884 25.4299 4.1C25.8619 4.316 26.1899 4.668 26.4139 5.156C26.6459 5.644 26.7619 6.3 26.7619 7.124V8.12H21.6499L22.4899 7.856C22.4899 8.144 22.5019 8.396 22.5259 8.612C22.5499 8.82 22.5899 8.996 22.6459 9.14C22.7019 9.276 22.7739 9.384 22.8619 9.464C22.9419 9.536 23.0419 9.592 23.1619 9.632C23.2899 9.672 23.4539 9.692 23.6539 9.692C23.8699 9.692 24.1099 9.672 24.3739 9.632C24.6379 9.584 24.8939 9.528 25.1419 9.464C25.3979 9.4 25.6179 9.344 25.8019 9.296C25.9859 9.24 26.1099 9.2 26.1739 9.176L26.6299 10.52C26.5579 10.552 26.3819 10.624 26.1019 10.736C25.8299 10.84 25.4979 10.936 25.1059 11.024C24.7219 11.12 24.3099 11.168 23.8699 11.168ZM22.4899 7.04L21.6619 6.788L25.7059 6.716L24.8659 6.98C24.8659 6.596 24.8499 6.28 24.8179 6.032C24.7859 5.784 24.7299 5.608 24.6499 5.504C24.5939 5.44 24.5099 5.38 24.3979 5.324C24.2859 5.268 24.1019 5.24 23.8459 5.24C23.5419 5.24 23.3139 5.272 23.1619 5.336C23.0099 5.392 22.8939 5.464 22.8139 5.552C22.5979 5.776 22.4899 6.272 22.4899 7.04ZM28.2298 11V1.868H30.0898V11H28.2298ZM34.6586 11.156C33.8826 11.156 33.2666 11.008 32.8106 10.712C32.3546 10.408 32.0306 9.98 31.8386 9.428C31.6466 8.876 31.5506 8.22 31.5506 7.46C31.5506 6.708 31.6466 6.06 31.8386 5.516C32.0306 4.964 32.3546 4.54 32.8106 4.244C33.2666 3.94 33.8826 3.788 34.6586 3.788C35.4426 3.788 36.0586 3.94 36.5066 4.244C36.9546 4.54 37.2706 4.964 37.4546 5.516C37.6466 6.06 37.7426 6.712 37.7426 7.472C37.7426 8.224 37.6466 8.876 37.4546 9.428C37.2706 9.98 36.9546 10.408 36.5066 10.712C36.0586 11.008 35.4426 11.156 34.6586 11.156ZM34.6586 9.74C34.8906 9.74 35.0826 9.708 35.2346 9.644C35.3866 9.58 35.5066 9.464 35.5946 9.296C35.6906 9.128 35.7546 8.896 35.7866 8.6C35.8266 8.304 35.8466 7.928 35.8466 7.472C35.8466 7.008 35.8266 6.628 35.7866 6.332C35.7466 6.036 35.6826 5.808 35.5946 5.648C35.5066 5.48 35.3866 5.364 35.2346 5.3C35.0826 5.236 34.8906 5.204 34.6586 5.204C34.4266 5.204 34.2306 5.236 34.0706 5.3C33.9186 5.364 33.7946 5.48 33.6986 5.648C33.6106 5.808 33.5466 6.036 33.5066 6.332C33.4666 6.628 33.4466 7.008 33.4466 7.472C33.4466 7.928 33.4666 8.304 33.5066 8.6C33.5466 8.896 33.6106 9.128 33.6986 9.296C33.7946 9.464 33.9186 9.58 34.0706 9.644C34.2306 9.708 34.4266 9.74 34.6586 9.74ZM42.0063 11.156C41.2303 11.156 40.6143 11.008 40.1583 10.712C39.7023 10.408 39.3783 9.98 39.1863 9.428C38.9943 8.876 38.8983 8.22 38.8983 7.46C38.8983 6.708 38.9943 6.06 39.1863 5.516C39.3783 4.964 39.7023 4.54 40.1583 4.244C40.6143 3.94 41.2303 3.788 42.0063 3.788C42.7903 3.788 43.4063 3.94 43.8543 4.244C44.3023 4.54 44.6183 4.964 44.8023 5.516C44.9943 6.06 45.0903 6.712 45.0903 7.472C45.0903 8.224 44.9943 8.876 44.8023 9.428C44.6183 9.98 44.3023 10.408 43.8543 10.712C43.4063 11.008 42.7903 11.156 42.0063 11.156ZM42.0063 9.74C42.2383 9.74 42.4303 9.708 42.5823 9.644C42.7343 9.58 42.8543 9.464 42.9423 9.296C43.0383 9.128 43.1023 8.896 43.1343 8.6C43.1743 8.304 43.1943 7.928 43.1943 7.472C43.1943 7.008 43.1743 6.628 43.1343 6.332C43.0943 6.036 43.0303 5.808 42.9423 5.648C42.8543 5.48 42.7343 5.364 42.5823 5.3C42.4303 5.236 42.2383 5.204 42.0063 5.204C41.7743 5.204 41.5783 5.236 41.4183 5.3C41.2663 5.364 41.1423 5.48 41.0463 5.648C40.9583 5.808 40.8943 6.036 40.8543 6.332C40.8143 6.628 40.7943 7.008 40.7943 7.472C40.7943 7.928 40.8143 8.304 40.8543 8.6C40.8943 8.896 40.9583 9.128 41.0463 9.296C41.1423 9.464 41.2663 9.58 41.4183 9.644C41.5783 9.708 41.7743 9.74 42.0063 9.74ZM50.9619 11L48.3699 7.244L50.6979 3.944H52.9539L50.2899 7.172V7.232L53.2419 11H50.9619ZM46.5579 11L46.6059 7.148L46.5579 1.868H48.4179V11H46.5579Z" fill="white"/>
</svg>
