<?xml version="1.0" encoding="UTF-8" standalone="no"?>
<svg
   fill="currentColor"
   viewBox="0 0 16 16"
   class="x1lliihq x1k90msu x2h7rmj x1qfuztq xcza8v6 xlup9mm x1kky2od"
   width="1"
   height="1"
   version="1.1"
   id="svg6"
   sodipodi:docname="create-room.svg"
   inkscape:export-filename="create-room.svg"
   inkscape:export-xdpi="4416.0005"
   inkscape:export-ydpi="4416.0005"
   inkscape:version="1.2.1 (9c6d41e410, 2022-07-14)"
   xmlns:inkscape="http://www.inkscape.org/namespaces/inkscape"
   xmlns:sodipodi="http://sodipodi.sourceforge.net/DTD/sodipodi-0.dtd"
   xmlns:xlink="http://www.w3.org/1999/xlink"
   xmlns="http://www.w3.org/2000/svg"
   xmlns:svg="http://www.w3.org/2000/svg">
  <defs
     id="defs10">
    <linearGradient
       inkscape:collect="always"
       id="linearGradient249">
      <stop
         style="stop-color:#ffff00;stop-opacity:1"
         offset="0"
         id="stop245" />
      <stop
         style="stop-color:#ff6600;stop-opacity:1"
         offset="1"
         id="stop247" />
    </linearGradient>
    <linearGradient
       inkscape:collect="always"
       xlink:href="#linearGradient249"
       id="linearGradient251"
       x1="450.9375"
       y1="547.875"
       x2="461.8125"
       y2="555.6875"
       gradientUnits="userSpaceOnUse" />
  </defs>
  <sodipodi:namedview
     id="namedview8"
     pagecolor="#505050"
     bordercolor="#ffffff"
     borderopacity="1"
     inkscape:showpageshadow="0"
     inkscape:pageopacity="0"
     inkscape:pagecheckerboard="1"
     inkscape:deskcolor="#505050"
     showgrid="false"
     inkscape:zoom="256"
     inkscape:cx="0.5"
     inkscape:cy="0.50195312"
     inkscape:window-width="1350"
     inkscape:window-height="1230"
     inkscape:window-x="3076"
     inkscape:window-y="2816"
     inkscape:window-maximized="0"
     inkscape:current-layer="svg6" />
  <g
     fill-rule="evenodd"
     transform="translate(-448 -544)"
     fill="#B0B3B8"
     id="g4">
    <path
       d="M457.25 552.5H455v2.25a.75.75 0 0 1-1.5 0v-2.25h-2.25a.75.75 0 0 1 0-1.5h2.25v-2.25a.75.75 0 0 1 1.5 0V551h2.25a.75.75 0 0 1 0 1.5m6.38-4.435a.62.62 0 0 0-.64.047l-2.49 1.634v-1.394a1.854 1.854 0 0 0-1.852-1.852l-8.796.002a1.854 1.854 0 0 0-1.851 1.852v6.793c0 1.021.83 1.852 1.852 1.852l1.147-.002h7.648a1.854 1.854 0 0 0 1.852-1.851v-1.392l2.457 1.61a.641.641 0 0 0 .673.071.663.663 0 0 0 .37-.601v-6.167c0-.26-.142-.49-.37-.602"
       fill="#B0B3B8"
       id="path2"
       style="fill-opacity:1;fill:url(#linearGradient251)"
       inkscape:export-filename=".\path2.svg"
       inkscape:export-xdpi="4416.0005"
       inkscape:export-ydpi="4416.0005" />
  </g>
</svg>
