<svg width="10" height="10" viewBox="0 0 10 10" fill="none" xmlns="http://www.w3.org/2000/svg">
<path d="M9.39982 1.30609C9.39992 0.857446 9.03624 0.49323 8.58825 0.49333L2.85408 0.49461C2.4061 0.49471 2.04225 0.859089 2.04215 1.30773C2.04205 1.75637 2.40573 2.12059 2.85372 2.12049L6.6329 2.11785L1.13403 7.62481C0.816787 7.94252 0.816673 8.45577 1.13377 8.77334C1.45087 9.0909 1.96337 9.09079 2.28061 8.77308L7.77768 3.26791L7.77863 7.04907C7.77853 7.49771 8.14221 7.86193 8.5902 7.86183C9.03818 7.86173 9.40202 7.49735 9.40212 7.04871L9.4034 1.30609L9.39982 1.30609Z" fill="white"/>
</svg>
